<svg id="logo" xmlns="http://www.w3.org/2000/svg" viewBox="0 0 327.8 105.2"><g><path fill="#000000" d="M89,23.1L51.4,1.4c-3.2-1.9-6-1.9-9.2,0L4.6,23.1c-3.2,1.8-4.6,4.3-4.6,8v1.5v1.3v16.6v8.3l21.6-12.4V63	v4.2l7.2,4.2V33.9L7.2,46.4l0,0l0,0c0-3.8,0-7.3,0-11.3c0-3.8,1.4-6.2,5.1-8.2l8.7-5L43.2,9v87.2L11.1,77.7	c-2.4-1.8-3.5-3.5-3.9-6.5l0,0c0-0.3,0-0.6,0-0.9V59.2L0,63.4v8.2v1.3v1.5c0,0.3,0,0.7,0,1l0,0c0.2,3.2,1.7,5.3,4.6,7l37.6,21.7	c3.4,1.5,5.8,1.5,9.2,0L89,82.4c3.2-1.8,4.6-4.3,4.6-8V50.5L64.8,33.9v8.3l21.6,12.5V71c-0.4,3.1-1.4,4.9-3.9,6.8L50.4,96.2V58.8	l14.4,8.3v4.2l10.8-6.2L50.4,50.5V9l0.3,0.1l15.9,9.2l15.9,9.2l0.2,0.1l10.9,6.3V31C93.6,27.4,92.2,24.9,89,23.1"></path><polygon fill="#74AB8E" points="290.2,27.7 294.9,35.8 290.2,34.1 285.6,35.8	"></polygon><path fill="#000000" d="M111.9,65.1v5.5c0,0,0.8,0.2,2.1,0.2c3.8,0,11.6-1.3,11.6-10.6V31.8h-11.2V37h4.3v22.9	c0,4.7-3.6,5.3-5.5,5.3C112.3,65.2,111.9,65.1,111.9,65.1"></path><path fill="#000000" d="M134.5,58.7c0-4.2,6.6-4.6,9.3-4.6h1.1V55c0,3.5-2.7,7.5-6.4,7.5C136,62.5,134.5,60.8,134.5,58.7 M127.5,59.3c0,5.7,4.5,8.4,9.2,8.4c6.4,0,8.8-5.3,8.8-5.3h0.1c0,0-0.2,0.5-0.2,1.4v0.3c0,1.6,1,2.9,3.5,2.9h6.5v-5.2H153	c-0.8,0-1.2-0.4-1.2-1.2v-11c0-7.1-4-10.9-11.4-10.9c-6.7,0-11,3.4-11,3.4l2.6,4.8c0,0,3.7-2.7,7.8-2.7c2.9,0,5.1,1.3,5.1,4.8v0.9	h-1.7C138.7,49.9,127.5,50.8,127.5,59.3z"></path><path fill="#000000" d="M157.2,56.9c0,9.3,7.7,10.4,11.6,10.4c1.3,0,2.1-0.2,2.1-0.2v-5.7c0,0-0.5,0.1-1.3,0.1	c-2,0-5.5-0.7-5.5-5.4V44.5h6.3v-5.2h-6.3v-7.6h-6.7v7.6h-4.5v5.2h4.2L157.2,56.9L157.2,56.9z"></path><path fill="#000000" d="M172.9,61c0,4.5,6.2,6.7,11.3,6.7c6.4,0,11.7-2.8,11.7-8.4c0-5.4-5-7.2-9.2-8.5c-3.1-0.9-5.8-1.8-5.8-4.1	c0-1.7,1.8-2.5,4-2.5c2.4,0,4.1,0.9,4.1,2.3V48h5.9v-3.5c0-4.2-6-5.8-10-5.8c-5.1,0-10.9,2.1-10.9,7.9c0,5.3,4.7,7.2,8.8,8.6	c3.7,1.4,6.3,2,6.3,4.3c0,1.8-2,2.8-4.7,2.8c-2.9,0-5.4-1-5.4-2.9v-1.6h-5.9V61H172.9z"></path><path fill="#000000" d="M201.1,56.9c0,9.3,7.7,10.4,11.6,10.4c1.3,0,2.1-0.2,2.1-0.2v-5.7c0,0-0.5,0.1-1.3,0.1	c-2,0-5.5-0.7-5.5-5.4V44.5h6.3v-5.2H208v-7.6h-6.7v7.6h-4.5v5.2h4.2v12.4H201.1z"></path><path fill="#000000" d="M220.6,57.1c0,7.6,3.5,10.5,9.1,10.5c7,0,9.8-5.2,10.1-6.1h0.1c0,0-0.1,0.6-0.1,1.3v1c0,2,1.1,3.1,3.6,3.1	h6.9v-5.1h-2.7c-0.8,0-1.2-0.4-1.2-1.2V39.3h-11.1v5.2h4.2v7.2c0,5-2.9,9.9-7.7,9.9c-3.5,0-4.3-2.3-4.3-5.6V39.3h-11.2v5.2h4.3	L220.6,57.1L220.6,57.1z"></path><path fill="#000000" d="M256.9,53.2c0-5.5,3.2-8.6,7.1-8.6c4.6,0,6.8,4.2,6.8,8.8c0,5.9-3.4,8.5-7,8.5	C259.7,61.9,256.9,58.5,256.9,53.2 M250,53.2c0,8.6,4.7,14.5,12.1,14.5c6.9,0,9.1-5.2,9.1-5.2h0.1c0,0-0.2,0.5-0.2,1.3v0.3	c0,1.6,1,2.9,3.5,2.9h6.5v-5.2h-2.5c-0.8,0-1.2-0.4-1.2-1.2V28.4h-11.1v5.2h4.3v7c0,1.1,0.1,2,0.1,2h-0.1c0,0-2.1-3.9-8-3.9	C255.1,38.7,250,44.4,250,53.2z"></path><polygon fill="#000000" points="283.2,67 298.1,67 298.1,61.9 294.1,61.9 294.1,39.3 282.9,39.3 282.9,44.5 287.2,44.5 287.2,61.9	283.2,61.9	"></polygon><path fill="#000000" d="M304.2,53.2c0-5.1,3.8-8.6,8.3-8.6s8.2,3.5,8.2,8.6c0,5.2-3.8,8.6-8.2,8.6C308,61.8,304.2,58.3,304.2,53.2 M297.2,53.2c0,8.5,6.8,14.5,15.3,14.5c8.4,0,15.2-6,15.2-14.5s-6.8-14.5-15.3-14.5C304,38.7,297.2,44.7,297.2,53.2z"></path></g></svg>