<svg xmlns="http://www.w3.org/2000/svg" viewBox="0 0 224.9 15.6">
  <path d="M0 .2h3.6l4 6.4 4-6.4h3.6v15.2h-3.3V5.5L7.6 12h-.1L3.3 5.5v9.8H0V.2zM18.6 8.9V.2h3.3v8.6c0 2.5 1.2 3.7 3.3 3.7 2 0 3.3-1.2 3.3-3.6V.2h3.3v8.5c0 4.6-2.6 6.8-6.6 6.8s-6.6-2.2-6.6-6.6zM35.2.2h3.3v6h6.1v-6H48v15.2h-3.3V9.3h-6.1v6.1h-3.3V.2zM56.8.1h3.1l6.5 15.3h-3.5L61.5 12h-6.4l-1.4 3.4h-3.4L56.8.1zM60.3 9l-2-4.9-2 4.9h4zM68.7.2h3.6l4 6.4 4-6.4h3.6v15.2h-3.3V5.5L76.3 12h-.1L72 5.5v9.8h-3.3V.2zM87.5.2h3.6l4 6.4 4-6.4h3.6v15.2h-3.3V5.5L95.1 12H95l-4.2-6.4v9.8h-3.3V.2zM111.5.1h3.1l6.5 15.3h-3.5l-1.4-3.4h-6.4l-1.4 3.4H105L111.5.1zM115 9l-2-4.9-2 4.9h4zM123.4.2h5.9c4.8 0 8.1 3.3 8.1 7.5 0 4.3-3.3 7.6-8.1 7.6h-5.9V.2zm5.9 12.2c2.7 0 4.6-1.8 4.6-4.5s-1.8-4.6-4.6-4.6h-2.6v9.1h2.6zM140.8.2h1.1l6.1 9 6.1-9h1.1v15.2H154V2.2l-6 8.7h-.1l-6-8.7v13.2h-1.1V.2zM159.4 9.1V.2h1.1V9c0 3.6 1.9 5.6 5.1 5.6 3.1 0 5-1.9 5-5.5V.2h1.1v8.7c0 4.4-2.5 6.7-6.2 6.7-3.6 0-6.1-2.3-6.1-6.5zM176.1.2h1.1v7h9.7v-7h1.1v15.2h-1.1V8.3h-9.7v7.1h-1.1V.2zM191.6 13.2l.7-.8c1.7 1.5 3.2 2.3 5.4 2.3 2.3 0 3.8-1.3 3.8-3 0-1.6-.8-2.5-4.3-3.2-3.6-.7-5.1-2-5.1-4.3s2.1-4 4.9-4c2.2 0 3.7.6 5.2 1.8l-.7.9C200.1 1.5 198.7 1 197 1c-2.2 0-3.7 1.3-3.7 2.9 0 1.6.8 2.6 4.4 3.3 3.5.7 5 2 5 4.2 0 2.4-2.1 4.1-5 4.1-2.5.1-4.3-.7-6.1-2.3zM206.5.2h1.1v15.2h-1.1V.2zM212.3.2h1.1l10.5 13.2V.2h1.1v15.2h-.8L213.4 1.9v13.5h-1.1V.2z"/>
</svg>
