<svg xmlns="http://www.w3.org/2000/svg" viewBox="0 0 336.9 72">
  <path d="M90 0l-9 36-9-36H54l-9 36-9-36H18L0 72h18l9-36 9 36h18l9-36 9 36h1L91 0h-1zM36.5 70.2l-9-36 8-31.9 9 36-8 31.9zm36 0l-9-36 8-31.9 9 36-8 31.9zM93.4 0l-9.1 36-9.2 36h1.3l18-72zM94 64h8v8h-8z"/>
  <g>
    <path d="M112 56.6h3.6l4 6.4 4-6.4h3.6v15.2h-3.3v-9.9l-4.3 6.5h-.1l-4.2-6.4v9.8H112V56.6zM130.6 65.3v-8.7h3.3v8.6c0 2.5 1.2 3.7 3.3 3.7 2 0 3.3-1.2 3.3-3.6v-8.7h3.3v8.5c0 4.6-2.6 6.8-6.6 6.8s-6.6-2.2-6.6-6.6zM147.2 56.6h3.3v6h6.1v-6h3.3v15.2h-3.3v-6.1h-6.1v6.1h-3.3V56.6zM168.8 56.5h3.1l6.5 15.3h-3.5l-1.4-3.4h-6.4l-1.4 3.4h-3.4l6.5-15.3zm3.5 8.9l-2-4.9-2 4.9h4zM180.7 56.6h3.6l4 6.4 4-6.4h3.6v15.2h-3.3v-9.9l-4.3 6.5h-.1L184 62v9.8h-3.3V56.6zM199.5 56.6h3.6l4 6.4 4-6.4h3.6v15.2h-3.3v-9.9l-4.3 6.5h-.1l-4.2-6.4v9.8h-3.3V56.6zM223.5 56.5h3.1l6.5 15.3h-3.5l-1.4-3.4h-6.4l-1.4 3.4H217l6.5-15.3zm3.5 8.9l-2-4.9-2 4.9h4zM235.4 56.6h5.9c4.8 0 8.1 3.3 8.1 7.5 0 4.3-3.3 7.6-8.1 7.6h-5.9V56.6zm5.9 12.2c2.7 0 4.6-1.8 4.6-4.5s-1.8-4.6-4.6-4.6h-2.6v9.1h2.6zM252.8 56.6h1.1l6.1 9 6.1-9h1.1v15.2H266V58.6l-6 8.7h-.1l-6-8.7v13.2h-1.1V56.6zM271.4 65.5v-8.9h1.1v8.7c0 3.6 1.9 5.6 5.1 5.6 3.1 0 5-1.9 5-5.5v-8.9h1.1v8.7c0 4.4-2.5 6.7-6.2 6.7-3.6.1-6.1-2.2-6.1-6.4zM288.1 56.6h1.1v7h9.7v-7h1.1v15.2h-1.1v-7.1h-9.7v7.1h-1.1V56.6zM303.6 69.6l.7-.8c1.7 1.5 3.2 2.3 5.4 2.3 2.3 0 3.8-1.3 3.8-3 0-1.6-.8-2.5-4.3-3.2-3.6-.7-5.1-2-5.1-4.3s2.1-4 4.9-4c2.2 0 3.7.6 5.2 1.8l-.7.9c-1.4-1.2-2.9-1.7-4.5-1.7-2.2 0-3.7 1.3-3.7 2.9 0 1.6.8 2.6 4.4 3.3 3.5.7 5 2 5 4.2 0 2.4-2.1 4.1-5 4.1-2.5-.1-4.3-.9-6.1-2.5zM318.5 56.6h1.1v15.2h-1.1V56.6zM324.3 56.6h1.1l10.5 13.2V56.6h1.1v15.2h-.8l-10.7-13.5v13.5h-1.1V56.6z"/>
  </g>
</svg>
