<svg version="1.1" viewBox="0.0 0.0 512.0 200.0" fill="none" stroke="none" stroke-linecap="square" stroke-miterlimit="10" xmlns:xlink="http://www.w3.org/1999/xlink" xmlns="http://www.w3.org/2000/svg"><clipPath id="p.0"><path d="m0 0l512.0 0l0 200.0l-512.0 0l0 -200.0z" clip-rule="nonzero"/></clipPath><g clip-path="url(#p.0)"><path fill="#000000" fill-opacity="0.0" d="m0 0l512.0 0l0 200.0l-512.0 0z" fill-rule="evenodd"/><path fill="#000000" fill-opacity="0.0" d="m14.104987 -10.546946l483.68506 0l0 69.44882l-483.68506 0z" fill-rule="evenodd"/><path fill="#000000" d="m87.17785 86.61305l-1.921875 0l-1.53125 -14.40625l-3.453125 -28.5l-0.390625 0l-16.609375 36.953125l-2.203125 0l-16.328125 -36.953125l-0.375 0l-3.359375 28.40625l-1.53125 14.5l-2.015625 0l5.46875 -47.140625l2.296875 0l3.078125 7.296875l13.71875 31.109375l0.296875 0l14.390625 -31.875l2.984375 -6.53125l2.203125 0l5.28125 47.140625zm51.072334 -16.890625q0.1875 8.15625 -4.421875 12.671875q-4.59375 4.5 -13.046867 4.5q-8.546875 0 -13.015625 -4.453125q-4.453125 -4.46875 -4.359375 -12.71875l0.09375 -6.921875l0 -23.328125l2.015625 0l-0.1875 30.15625q-0.09375 7.484375 3.890625 11.46875q3.984375 3.984375 11.5625 3.984375q7.5781174 0 11.562492 -3.984375q3.984375 -3.984375 3.984375 -11.46875l0 -30.15625l1.921875 0l0 30.25zm54.623474 -30.25l0 47.140625l-1.921875 0l0 -23.046875l-31.875 0l0 23.046875l-1.90625 0l0 -47.140625l1.90625 0l0 22.28125l31.875 0l0 -22.28125l1.921875 0zm53.760468 47.140625l-2.203125 0l-0.96875 -3.359375l-4.703125 -12.09375l-23.796875 0l-5.09375 12.09375l-1.15625 3.359375l-2.203125 0l19.875 -47.140625l2.015625 0l18.234375 47.140625zm-19.203125 -44.25l-0.28125 0l-11.421875 26.96875l22.265625 0l-10.5625 -26.96875zm80.64273 44.25l-1.921875 0l-1.53125 -14.40625l-3.453125 -28.5l-0.390625 0l-16.609375 36.953125l-2.203125 0l-16.328125 -36.953125l-0.375 0l-3.359375 28.40625l-1.53125 14.5l-2.015625 0l5.46875 -47.140625l2.296875 0l3.078125 7.296875l13.71875 31.109375l0.296875 0l14.390625 -31.875l2.984375 -6.53125l2.203125 0l5.28125 47.140625zm65.08795 0l-1.921875 0l-1.53125 -14.40625l-3.453125 -28.5l-0.390625 0l-16.609375 36.953125l-2.203125 0l-16.328125 -36.953125l-0.375 0l-3.359375 28.40625l-1.53125 14.5l-2.015625 0l5.46875 -47.140625l2.296875 0l3.078125 7.296875l13.71875 31.109375l0.296875 0l14.390625 -31.875l2.984375 -6.53125l2.203125 0l5.28125 47.140625zm51.072388 0l-2.203125 0l-0.96875 -3.359375l-4.703125 -12.09375l-23.796875 0l-5.09375 12.09375l-1.15625 3.359375l-2.203125 0l19.875 -47.140625l2.015625 0l18.234375 47.140625zm-19.203125 -44.25l-0.28125 0l-11.421875 26.96875l22.265625 0l-10.5625 -26.96875zm49.6427 -3.265625q10.546875 0 16.203125 5.8125q5.671875 5.796875 5.671875 16.640625q0 12.203125 -5.90625 18.828125q-5.890625 6.625 -16.84375 6.625q-2.78125 0 -7.203125 -0.109375q-4.40625 -0.09375 -7.953125 -0.28125l0 -47.140625l16.03125 -0.375zm-0.78125 46.078125q9.984375 0 15.359375 -6.09375q5.390625 -6.09375 5.390625 -17.421875q0 -9.984375 -5.1875 -15.3125q-5.1875 -5.328125 -14.890625 -5.328125l-14.015625 0.375l0 43.390625q3.171875 0.203125 7.0625 0.296875q3.890625 0.09375 6.28125 0.09375z" fill-rule="nonzero"/><path fill="#000000" fill-opacity="0.0" d="m91.41207 62.50001l329.07086 0l0 88.15747l-329.07086 0z" fill-rule="evenodd"/><path fill="#000000" d="m167.62584 159.66l-1.921875 0l-1.53125 -14.40625l-3.453125 -28.5l-0.390625 0l-16.609375 36.953125l-2.203125 0l-16.328133 -36.953125l-0.375 0l-3.359375 28.40625l-1.53125 14.5l-2.015625 0l5.46875 -47.140625l2.296875 0l3.0781326 7.296875l13.71875 31.109375l0.296875 0l14.390625 -31.875l2.984375 -6.53125l2.203125 0l5.28125 47.140625zm51.072342 -16.890625q0.1875 8.15625 -4.421875 12.671875q-4.59375 4.5 -13.046875 4.5q-8.546875 0 -13.015625 -4.453125q-4.453125 -4.46875 -4.359375 -12.71875l0.09375 -6.921875l0 -23.328125l2.015625 0l-0.1875 30.15625q-0.09375 7.484375 3.890625 11.46875q3.984375 3.984375 11.5625 3.984375q7.578125 0 11.5625 -3.984375q3.984375 -3.984375 3.984375 -11.46875l0 -30.15625l1.921875 0l0 30.25zm54.623474 -30.25l0 47.140625l-1.921875 0l0 -23.046875l-31.875 0l0 23.046875l-1.90625 0l0 -47.140625l1.90625 0l0 22.28125l31.875 0l0 -22.28125l1.921875 0zm31.682343 -0.1875q4.984375 0 9.796875 2.109375l-0.390625 1.734375l-0.578125 0.09375q-4.3125 -2.109375 -9.015625 -2.109375q-3.75 0 -6.53125 1.484375q-2.78125 1.484375 -4.234375 3.84375q-1.4375 2.34375 -1.4375 4.75q0 2.5 1.484375 4.328125q1.5 1.8125 3.609375 3.0625q2.109375 1.25 5.953125 2.96875q4.125 1.828125 6.671875 3.375q2.546875 1.53125 4.3125 3.890625q1.78125 2.34375 1.78125 5.703125q0 3.265625 -1.875 6.140625q-1.875 2.875 -5.28125 4.5625q-3.40625 1.671875 -7.625 1.671875q-3.078125 0 -6.34375 -0.90625q-3.25 -0.90625 -5.75 -2.546875l0.09375 -1.8125l0.484375 -0.109375q2.390625 1.734375 5.515625 2.65625q3.125 0.90625 6.0 0.90625q3.84375 0 6.765625 -1.484375q2.921875 -1.5 4.5 -3.890625q1.59375 -2.40625 1.59375 -5.09375q0 -2.6875 -1.53125 -4.65625q-1.53125 -1.96875 -3.75 -3.265625q-2.203125 -1.296875 -6.140625 -3.125q-4.125 -1.90625 -6.53125 -3.34375q-2.390625 -1.453125 -4.125 -3.703125q-1.71875 -2.265625 -1.71875 -5.515625q0 -3.171875 1.8125 -5.859375q1.828125 -2.6875 5.09375 -4.265625q3.265625 -1.59375 7.390625 -1.59375zm29.752716 47.328125l-1.90625 0l0 -47.140625l1.90625 0l0 47.140625zm56.45511 -13.15625l-0.09375 13.15625l-1.921875 0l-31.296875 -43.296875l-0.28125 0l-0.109375 28.515625l0 14.78125l-1.90625 0l0 -14.015625l0.09375 -33.125l1.921875 0l31.296875 43.296875l0.375 0l0.09375 -43.203125l1.921875 -0.1875l-0.09375 34.078125z" fill-rule="nonzero"/><path fill="#000000" fill-opacity="0.0" d="m10.3149605 10.616623l491.37006 0l0 173.92126l-491.37006 0z" fill-rule="evenodd"/><path stroke="#000000" stroke-width="1.0" stroke-linejoin="round" stroke-linecap="butt" d="m10.3149605 10.616623l491.37006 0l0 173.92126l-491.37006 0z" fill-rule="evenodd"/></g></svg>