<svg xmlns="http://www.w3.org/2000/svg" viewBox="0 0 124.6 8.6">
  <path d="M0 .1h2l2.2 3.5L6.4.1h2v8.4H6.6V3L4.2 6.6 1.8 3.1v5.4H0V.1zM10.3 4.9V.1h1.8v4.7c0 1.4.7 2.1 1.8 2.1s1.8-.7 1.8-2V.1h1.8v4.7c0 2.5-1.4 3.8-3.7 3.8s-3.5-1.2-3.5-3.7zM19.5.1h1.8v3.3h3.4V.1h1.8v8.4h-1.8V5.1h-3.4v3.4h-1.8V.1zM31.5.1h1.7l3.6 8.5h-1.9l-.8-1.9h-3.5l-.8 1.9h-1.9L31.5.1zM33.4 5l-1.1-2.7L31.2 5h2.2zM38.1.1h2l2.2 3.5L44.5.1h2v8.4h-1.8V3l-2.4 3.6L40 3v5.4h-1.8V.1zM48.5.1h2l2.2 3.5L54.9.1h2v8.4h-1.8V3l-2.4 3.6L50.4 3v5.4h-1.8V.1zM61.8.1h1.7l3.6 8.5h-1.9l-.8-1.9h-3.5l-.8 1.9h-1.9L61.8.1zM63.7 5l-1.1-2.7L61.5 5h2.2zM68.4.1h3.3c2.6 0 4.5 1.8 4.5 4.2 0 2.4-1.8 4.2-4.5 4.2h-3.3V.1zm3.3 6.7c1.5 0 2.5-1 2.5-2.5s-1-2.5-2.5-2.5h-1.4v5.1h1.4zM78 .1h.6l3.4 5 3.4-5h.6v8.4h-.6V1.2L82 6.1l-3.3-4.8v7.3H78V.1zM88.3 5V.1h.6V5c0 2 1.1 3.1 2.8 3.1 1.7 0 2.8-1 2.8-3.1V.1h.6V5c0 2.4-1.4 3.7-3.4 3.7-2-.1-3.4-1.3-3.4-3.7zM97.6.1h.6V4h5.4V.1h.6v8.4h-.6V4.6h-5.4v3.9h-.6V.1zM106.1 7.3l.4-.5c.9.9 1.8 1.2 3 1.2 1.3 0 2.1-.7 2.1-1.7 0-.9-.5-1.4-2.4-1.8-2-.4-2.8-1.1-2.8-2.4 0-1.2 1.1-2.2 2.7-2.2 1.2 0 2 .3 2.9 1l-.4.5c-.8-.7-1.6-.9-2.5-.9-1.2 0-2.1.7-2.1 1.6 0 .9.5 1.4 2.4 1.8 1.9.4 2.8 1.1 2.8 2.3 0 1.4-1.2 2.3-2.8 2.3-1.2.1-2.3-.3-3.3-1.2zM114.4.1h.6v8.4h-.6V.1zM117.6.1h.6l5.8 7.3V.1h.6v8.4h-.5L118.2 1v7.5h-.6V.1z"/>
</svg>
