<svg xmlns="http://www.w3.org/2000/svg" width="326" height="96" fill="none" viewBox="0 0 326 96">
    <path fill="#000" fill-rule="evenodd" d="M152.525 59.617c1.422 0 2.889.58 3.734 1.476l.001.001c.717.762 1.128 2.049 1.071 3.36-.059 1.371-.583 2.564-1.476 3.361a32.024 32.024 0 0 1-21.322 8.118c-17.694 0-32.087-14.423-32.087-32.154 0-17.727 14.393-32.15 32.087-32.15a32.014 32.014 0 0 1 21.323 8.127c.856.764 1.366 1.929 1.435 3.28.068 1.355-.329 2.675-1.037 3.446-1.464 1.598-4.901 1.876-6.748.383-4.607-3.726-9.785-5.697-14.972-5.697-12.443 0-22.565 10.144-22.565 22.611 0 12.469 10.122 22.613 22.564 22.613a22.51 22.51 0 0 0 14.993-5.707c.771-.688 1.837-1.068 2.999-1.068zm121.069-17.941c.954 2.193 1.437 4.568 1.437 7.057h.002v22.36c0 1.292-.434 2.33-1.367 3.265-.936.937-1.972 1.374-3.259 1.374-1.282 0-2.297-.431-3.2-1.353-.915-.938-1.341-1.982-1.341-3.285v-22.36c0-2.475-.915-4.627-2.718-6.398-1.794-1.755-3.945-2.647-6.395-2.647-2.521 0-4.694.896-6.459 2.664-1.763 1.766-2.657 3.912-2.657 6.38v22.361c0 .643-.121 1.258-.356 1.832a4.567 4.567 0 0 1-.967 1.477 4.673 4.673 0 0 1-1.455.98 4.48 4.48 0 0 1-1.761.35c-1.291 0-2.328-.44-3.26-1.374-.935-.935-1.372-1.974-1.372-3.266V48.732c0-2.465-.893-4.613-2.657-6.38-1.765-1.767-3.937-2.664-6.456-2.664-2.461 0-4.604.896-6.37 2.665-1.762 1.766-2.657 3.913-2.657 6.38v22.363c0 1.29-.436 2.33-1.369 3.266-.934.934-1.971 1.372-3.259 1.372-1.282 0-2.297-.431-3.2-1.354-.915-.938-1.341-1.983-1.341-3.285v-22.36c0-2.49.483-4.865 1.435-7.06.962-2.216 2.279-4.17 3.915-5.808 1.636-1.638 3.587-2.96 5.799-3.924 2.194-.954 4.565-1.439 7.047-1.439 2.598 0 4.923.44 6.909 1.308 2.05.895 3.853 2.036 5.367 3.395l1.494 1.337 1.468-1.367c1.44-1.338 3.216-2.47 5.281-3.359 2.019-.873 4.334-1.314 6.879-1.314 2.485 0 4.87.486 7.091 1.441 2.247.971 4.211 2.29 5.838 3.92 1.634 1.637 2.952 3.592 3.914 5.811zm-67.944 11.26a2.38 2.38 0 0 0-.008-.17c-.003-.056-.007-.112-.007-.168v-.424c0-.096-.014-.191-.027-.285a3.386 3.386 0 0 1-.019-.142c-.621-11.95-10.493-21.488-22.573-21.488-12.482 0-22.635 10.173-22.635 22.677 0 12.505 10.153 22.676 22.635 22.676 5.324 0 10.219-1.863 14.088-4.957v1.073A4.268 4.268 0 0 0 201.367 76a4.27 4.27 0 0 0 4.268-4.274V53.272c-.001-.06.003-.117.007-.175a2.17 2.17 0 0 0 .008-.163v.002zm-36.74 0c0 7.792 6.327 14.132 14.105 14.132h-.001c7.663 0 13.907-6.158 14.089-13.793v-.676c-.18-7.635-6.426-13.795-14.088-13.795-7.777 0-14.105 6.34-14.105 14.132zm111.69.499v38.292A4.267 4.267 0 0 0 284.863 96a4.269 4.269 0 0 0 4.266-4.272v-20.91c3.871 3.093 8.762 4.958 14.089 4.958 12.48 0 22.634-10.172 22.634-22.678 0-12.505-10.156-22.68-22.636-22.68-12.081 0-21.95 9.538-22.575 21.487a3.704 3.704 0 0 1-.018.151 2.118 2.118 0 0 0-.023.278v.423c-.001.051-.005.102-.008.153a2.259 2.259 0 0 0-.009.185c0 .062.004.123.009.184.004.05.007.102.008.153v.003zm8.527-.676v.676h.001c.182 7.636 6.423 13.794 14.089 13.794 7.777 0 14.104-6.34 14.104-14.133 0-7.792-6.326-14.131-14.104-14.131-7.666 0-13.908 6.158-14.09 13.794zM0 44.447C0 19.899 19.862 0 44.36 0c24.5 0 44.36 19.9 44.36 44.446S68.86 88.89 44.36 88.89C19.862 88.89 0 68.994 0 44.447zm56.208 24.418l7.685.028c2.51-.004 4.549-2.053 4.549-4.565 0-2.516-2.04-4.564-4.544-4.564l-7.527-.025c-1.752 0-3.124-1.412-3.124-3.217l-.002-16.688 5.394-.005a4.518 4.518 0 0 0 3.208-1.339 4.518 4.518 0 0 0 1.336-3.233 4.57 4.57 0 0 0-4.566-4.557l-5.373.008-.004-8.651c0-2.517-2.042-4.565-4.553-4.565-2.51 0-4.554 2.049-4.554 4.565v8.658l-8.43.012c-6.753 0-12.247 5.504-12.247 12.269l.016 21.183a4.566 4.566 0 0 0 4.556 4.564 4.568 4.568 0 0 0 4.558-4.564l.008-21.454c.3-1.714 1.55-2.867 3.115-2.867l8.425-.012v16.606c.003 6.732 5.414 12.299 12.074 12.413z" clip-rule="evenodd"/>
</svg>
