<?xml version="1.0" encoding="utf-8"?>
<!-- Generator: Adobe Illustrator 16.0.0, SVG Export Plug-In . SVG Version: 6.00 Build 0)  -->
<!DOCTYPE svg PUBLIC "-//W3C//DTD SVG 1.1//EN" "http://www.w3.org/Graphics/SVG/1.1/DTD/svg11.dtd">
<svg version="1.1" id="Layer_1" xmlns="http://www.w3.org/2000/svg" xmlns:xlink="http://www.w3.org/1999/xlink" x="0px" y="0px"
	 width="600px" height="300px" viewBox="0 0 600 300" enable-background="new 0 0 600 300" xml:space="preserve">
<g>
	<line fill="none" stroke="#000000" stroke-width="0.276" x1="31.142" y1="-122.11" x2="31.142" y2="-86.11"/>
	<line fill="none" stroke="#000000" stroke-width="0.276" x1="-14.565" y1="-68.11" x2="15.906" y2="-68.11"/>
	<line fill="none" stroke="#000000" stroke-width="0.276" x1="-14.565" y1="368.109" x2="15.906" y2="368.109"/>
	<line fill="none" stroke="#000000" stroke-width="0.276" x1="31.142" y1="422.109" x2="31.142" y2="386.109"/>
	<line fill="none" stroke="#000000" stroke-width="0.276" x1="708.292" y1="-122.11" x2="708.292" y2="-86.11"/>
	<line fill="none" stroke="#000000" stroke-width="0.276" x1="754" y1="-68.11" x2="723.528" y2="-68.11"/>
	<line fill="none" stroke="#000000" stroke-width="0.276" x1="754" y1="368.109" x2="723.528" y2="368.109"/>
	<line fill="none" stroke="#000000" stroke-width="0.276" x1="708.292" y1="422.109" x2="708.292" y2="386.109"/>
</g>
<g>
	<g>
		<path fill="#E7C587" d="M431.283,90.073h-4.105c-5.66,0-6.328-1.555-6.328-6.663V59.214c0-5.109,0.668-6.66,6.328-6.66h4.105
			v-7.438h-23.979V83.41c0,5.108-0.773,6.663-6.432,6.663h-3.338v7.431h33.748V90.073z M415.074,22.14
			c-4.66,0-8.314,3.55-8.314,8.217c0,4.66,3.654,8.321,8.314,8.321c4.664,0,8.221-3.773,8.221-8.321
			C423.295,25.803,419.738,22.14,415.074,22.14"/>
		<path fill="#AEADD6" d="M471.223,97.193h-3.082c-4.246,0-4.748-1.164-4.748-4.993V74.057c0-3.833,0.502-4.997,4.748-4.997h3.082
			v-5.582h-17.988V92.2c0,3.829-0.58,4.993-4.83,4.993h-2.496v5.578h25.314V97.193z M459.068,46.246
			c-3.498,0-6.252,2.666-6.252,6.161c0,3.494,2.754,6.247,6.252,6.247c3.49,0,6.158-2.833,6.158-6.247
			C465.227,48.995,462.559,46.246,459.068,46.246"/>
		<path fill="#A4A1CF" d="M288.309,122.187h3.077c4.257,0,4.754-1.166,4.754-4.995V99.049c0-3.833-0.497-4.999-4.754-4.999h-3.077
			v-5.577h17.986v28.719c0,3.829,0.584,4.995,4.822,4.995h2.506v5.578h-25.314V122.187z M300.465,71.24
			c3.498,0,6.244,2.666,6.244,6.161c0,3.497-2.746,6.247-6.244,6.247c-3.495,0-6.158-2.835-6.158-6.247
			C294.307,73.988,296.97,71.24,300.465,71.24"/>
		<path fill="#9997C9" d="M410.131,111.061h-3.395c-5.66,0-6.326-1.555-6.326-6.661V80.202c0-5.107,0.666-6.66,6.326-6.66h4.107
			v-7.437h-23.975v38.294c0,5.106-0.777,6.661-6.436,6.661h-2.627v7.431h32.324V111.061z M394.635,43.127
			c-4.658,0-8.324,3.557-8.324,8.217c0,4.659,3.666,8.323,8.324,8.323c4.67,0,8.217-3.775,8.217-8.323
			C402.852,46.791,399.305,43.127,394.635,43.127"/>
		<path fill="#E7C587" d="M329.543,142.987h-3.082c-4.246,0-4.748-1.166-4.748-4.995v-18.145c0-3.831,0.502-4.999,4.748-4.999h3.082
			v-5.575h-17.988v28.719c0,3.829-0.58,4.995-4.826,4.995h-2.498v5.575h25.313V142.987z M317.387,92.04
			c-3.494,0-6.25,2.66-6.25,6.161c0,3.494,2.756,6.243,6.25,6.243c3.492,0,6.16-2.832,6.16-6.243
			C323.547,94.786,320.879,92.04,317.387,92.04"/>
		<path fill="#DCAD53" d="M500.602,141.131h-4.236c-5.66,0-6.326-1.555-6.326-6.665v-24.194c0-5.109,0.666-6.658,6.326-6.658h4.107
			v-7.438h-23.975v38.291c0,5.11-0.775,6.665-6.439,6.665h-3.41v7.431h33.953V141.131z M484.266,73.197
			c-4.664,0-8.326,3.55-8.326,8.213c0,4.661,3.662,8.327,8.326,8.327c4.668,0,8.211-3.775,8.211-8.327
			C492.477,76.863,488.934,73.197,484.266,73.197"/>
		<path fill="#6F6FB2" d="M431.287,112.917h3.082c4.242,0,4.744-1.167,4.744-4.995V89.774c0-3.829-0.502-4.997-4.744-4.997h-3.082
			v-5.575h17.984v28.719c0,3.827,0.584,4.995,4.822,4.995h2.502v5.573h-25.309V112.917z M443.445,61.97
			c3.49,0,6.244,2.661,6.244,6.162c0,3.494-2.754,6.244-6.244,6.244c-3.498,0-6.166-2.833-6.166-6.244
			C437.279,64.714,439.947,61.97,443.445,61.97"/>
		<path fill="#E0B768" d="M327.764,127.709h4.1c5.664,0,6.33-1.555,6.33-6.661V96.852c0-5.105-0.666-6.658-6.33-6.658h-4.1v-7.44
			h23.971v38.294c0,5.106,0.779,6.661,6.439,6.661h3.33v7.433h-33.74V127.709z M343.969,59.775c4.658,0,8.32,3.556,8.32,8.217
			c0,4.663-3.662,8.327-8.32,8.327c-4.674,0-8.217-3.779-8.217-8.327C335.752,63.439,339.295,59.775,343.969,59.775"/>
		<path fill="#7C7BB9" d="M347.506,90.073h4.105c5.664,0,6.328-1.555,6.328-6.659v-24.2c0-5.103-0.664-6.66-6.328-6.66h-4.105
			v-7.438h23.975v38.298c0,5.104,0.775,6.659,6.439,6.659h3.326v7.431h-33.74V90.073z M363.709,22.14
			c4.662,0,8.326,3.552,8.326,8.211c0,4.666-3.664,8.327-8.326,8.327c-4.668,0-8.211-3.773-8.211-8.327
			C355.498,25.803,359.041,22.14,363.709,22.14"/>
	</g>
	<path fill="#4E4887" d="M11.378,197.936h11.814c3.332,20.297,15.447,31.201,34.079,31.201c13.63,0,20.897-4.695,20.897-13.176
		c0-7.877-5.45-12.422-17.263-15.146l-16.509-3.787c-22.72-5.301-33.322-13.783-33.322-30.141c0-18.932,14.237-31.655,36.652-31.655
		c11.057,0,20.447,3.332,29.535,10.451l5.302-7.421h9.086v38.469h-11.51c-3.484-18.779-15.298-29.081-31.806-29.081
		c-12.42,0-19.236,5-19.236,13.026c0,7.119,4.847,10.906,14.993,13.178l20.447,4.695c21.66,4.998,32.412,15.449,32.412,31.656
		c0,19.084-15.296,32.715-38.016,32.715c-11.509,0-22.566-4.242-33.775-12.57l-3.332,9.541h-10.45V197.936z"/>
	<path fill="#D0981B" d="M102.317,229.742h5.604c7.724,0,8.636-2.121,8.636-9.088v-33.02c0-6.965-0.912-9.086-8.636-9.086h-5.604
		V168.4h32.716v52.254c0,6.967,1.06,9.088,8.785,9.088h4.544v10.148h-46.045V229.742z M124.43,137.049
		c6.362,0,11.36,4.847,11.36,11.208c0,6.362-4.998,11.358-11.36,11.358c-6.358,0-11.208-5.148-11.208-11.358
		S118.071,137.049,124.43,137.049"/>
	<path fill="#4E4887" d="M255.747,166.129c6.664,0,12.418,2.273,15.752,5.756c4.846,5.15,4.997,11.662,4.997,20.598v28.172
		c0,6.967,0.911,9.088,8.633,9.088h4.241v10.148h-41.348v-10.148h1.666c7.724,0,8.785-2.121,8.785-9.088v-28.172
		c0-9.994-1.515-14.689-10.3-14.689s-16.813,8.025-16.813,19.84v23.021c0,6.967,0.909,9.088,8.634,9.088h1.817v10.148h-38.924
		v-10.148h1.663c7.728,0,8.787-2.121,8.787-9.088v-28.172c0-9.994-1.515-14.689-10.302-14.689c-8.783,0-16.81,8.025-16.81,19.84
		v23.021c0,6.967,0.908,9.088,8.633,9.088h1.817v10.148H154.57v-10.148h5.001c7.723,0,8.631-2.121,8.631-9.088v-33.02
		c0-6.965-0.908-9.086-8.631-9.086h-5.001v-10.146h31.657v12.115c7.573-9.844,14.994-14.389,24.688-14.389
		c9.846,0,16.356,4.848,19.688,14.541C239.086,170.977,246.508,166.129,255.747,166.129"/>
	<path fill="#4E4887" d="M300.768,187.635c0-6.965-1.063-9.086-8.787-9.086h-3.786V168.4h30.749v12.42
		c4.996-9.996,12.721-14.539,24.381-14.539c19.236,0,30.896,13.781,30.896,38.168c0,24.385-11.66,38.016-30.896,38.016
		c-11.66,0-19.385-4.545-24.381-14.541v30.701c0,6.965,1.055,9.088,8.783,9.088h6.816v10.146h-46.954v-10.146h4.392
		c7.725,0,8.787-2.123,8.787-9.088V187.635z M336.355,178.398c-10.299,0-17.412,9.088-17.412,25.594
		c0,16.512,7.113,25.445,17.412,25.445c11.664,0,17.27-8.33,17.27-25.445C353.625,186.879,348.02,178.398,336.355,178.398"/>
	<path fill="#4E4887" d="M382.861,148.408h-5.057v-10.146h32.314v82.392c0,6.967,1.061,9.088,8.787,9.088h4.543v10.148h-45.131
		v-10.148h4.543c7.721,0,8.785-2.121,8.785-9.088v-63.158C391.646,150.528,390.582,148.408,382.861,148.408"/>
	<path fill="#4E4887" d="M434.42,187.635c0-6.965-1.063-9.086-8.787-9.086h-3.484v-10.146h30.447v47.406
		c0,9.844,2.725,14.691,11.205,14.691c10.75,0,18.627-8.332,18.627-24.385v-18.48c0-6.965-1.061-9.086-8.781-9.086h-6.967v-10.146
		h33.924v52.252c0,6.967,1.064,9.088,8.785,9.088h3.936v10.148h-30.896v-12.57c-7.877,9.844-16.355,14.842-24.99,14.842
		c-17.113,0-23.018-8.18-23.018-26.354V187.635z"/>
	<path fill="#4E4887" d="M560.295,229.742h7.572v10.148h-48.164v-10.148h5.002c7.723,0,8.629-2.121,8.629-9.088v-33.02
		c0-6.965-0.906-9.086-8.629-9.086h-5.002V168.4h31.959v10.754c4.697-8.482,11.059-12.723,18.934-12.723
		c10.904,0,18.33,6.816,18.33,16.357c0,7.422-4.85,12.875-12.271,12.875c-6.365,0-10.449-3.938-10.449-9.389
		c0-5,3.178-8.635,9.236-10.301c-2.42-1.061-4.545-1.516-6.207-1.516c-9.393,0-17.572,10.301-17.572,26.961v19.234
		C551.662,227.621,552.574,229.742,560.295,229.742"/>
</g>
</svg>
